<?xml version="1.0" standalone="no"?><!DOCTYPE svg PUBLIC "-//W3C//DTD SVG 1.1//EN" "http://www.w3.org/Graphics/SVG/1.1/DTD/svg11.dtd"><svg t="1653752341819" class="icon" viewBox="0 0 1024 1024" version="1.1" xmlns="http://www.w3.org/2000/svg" p-id="10572" width="32" height="32"><path d="M35.310345 0h953.37931a35.310345 35.310345 0 0 1 35.310345 35.310345v953.37931a35.310345 35.310345 0 0 1-35.310345 35.310345H35.310345a35.310345 35.310345 0 0 1-35.310345-35.310345V35.310345a35.310345 35.310345 0 0 1 35.310345-35.310345z m491.661241 282.482759c-48.16331 0-85.910069 13.665103-113.911172 41.012965C384.423724 350.808276 370.758621 388.590345 370.758621 436.753655h74.204689c0-27.347862 5.208276-48.816552 16.278069-63.788138 12.358621-18.237793 32.538483-26.694621 61.175173-26.69462 22.139586 0 39.724138 5.861517 52.082758 18.220137 11.705379 12.358621 18.220138 29.307586 18.220138 50.776276 0 16.278069-5.861517 31.902897-17.566896 46.221242l-7.821242 9.110069c-42.301793 37.746759-67.689931 65.094621-76.146758 82.661517-9.127724 17.584552-13.029517 39.053241-13.029518 63.788138v9.110069h74.857932v-9.110069c0-15.624828 3.248552-29.289931 9.76331-42.301793a100.881655 100.881655 0 0 1 26.041379-32.556138c31.249655-27.330207 50.123034-44.914759 55.966897-51.411862 15.624828-20.833103 24.09931-47.527724 24.09931-80.066207 0-39.706483-13.029517-70.956138-39.053241-93.73131C603.789241 293.552552 569.273379 282.482759 526.971586 282.482759z m-11.705379 375.578482c-14.318345 0-26.041379 4.555034-35.80469 13.665104-9.76331 9.110069-14.318345 20.833103-14.318345 35.151448 0 14.318345 4.555034 26.041379 14.318345 35.133793 9.76331 9.127724 21.486345 14.336 35.80469 14.336 14.30069 0 26.023724-4.555034 35.787034-13.665103 9.76331-9.110069 14.971586-21.486345 14.971587-35.80469 0-14.318345-5.208276-26.041379-14.30069-35.133793-9.780966-9.127724-22.139586-13.682759-36.457931-13.682759z" fill="#95BBF9" p-id="10573"></path></svg>